Format                                   : MPEG-4
Format profile                           : Base Media / Version 2
Codec ID                                 : mp42
File size                                : 755 MiB
Duration                                 : 1h 26mn 48s
Overall bit rate mode                    : Variable
Overall bit rate                         : 1 216 Kbps

Video
ID                                       : 1
Format                                   : AVC
Format/Info                              : Advanced Video Codec
Format profile                           : High@L3.0
Format settings, CABAC                   : Yes
Format settings, ReFrames                : 3 frames
Codec ID                                 : avc1
Codec ID/Info                            : Advanced Video Coding
Duration                                 : 1h 26mn 48s
Bit rate mode                            : Variable
Bit rate                                 : 1 136 Kbps
Width                                    : 640 pixels
Height                                   : 480 pixels
Display aspect ratio                     : 4:3
Frame rate mode                          : Variable
Frame rate                               : 29.970 fps
Minimum frame rate                       : 16.345 fps
Maximum frame rate                       : 30.000 fps
Color space                              : YUV
Chroma subsampling                       : 4:2:0
Bit depth                                : 8 bits
Scan type                                : Progressive
Bits/(Pixel*Frame)                       : 0.123
Stream size                              : 702 MiB (93%)
Writing library                          : x264 core 65
Language                                 : English

Audio
ID                                       : 2
Format                                   : AAC
Format/Info                              : Advanced Audio Codec
Format profile                           : LC
Codec ID                                 : 40
Duration                                 : 1h 26mn 48s
Bit rate mode                            : Variable
Bit rate                                 : 76.0 Kbps
Maximum bit rate                         : 111 Kbps
Channel(s)                               : 2 channels
Channel positions                        : Front: L R
Sampling rate                            : 22.05 KHz
Compression mode                         : Lossy
Delay relative to video                  : 67ms
Stream size                              : 53 MiB (7%)

Screens.  http://bayimg.com/banciaaeb

          http://bayimg.com/baNcjAAEb

          http://bayimg.com/bANcLaaeb

          http://bayimg.com/bANCnaaeB

          http://bayimg.com/bancPaAEB

          http://bayimg.com/cancaAaEb

Covers.  http://bayimg.com/bAnCfAaeB

         http://bayimg.com/BANCHAAEB

Enjoy.